:SAMPLES-PER-SECOND 30
:FULLY-SPECIFIED
:DEGREES
918
root  -55.1734 40.4322 30.5772 179.959 47.4801 178.785
RightUpLeg  -13.396 -28.9801 -1.91306
RightLeg  21.6185 -5.69616 -2.70041
RightFoot  -8.70876 -0.054954 -0.18412
RightToes  0.00048216 0.542163 -0.142577
Spine  15.9771 1.05004 2.66003
Spine1  11.6539 2.03813 -1.99787
HEad  -13.3765 -10.5545 2.23882
LeftShoulder1  8.7156 -13.1866 -45.5249
LeftArm  -10.1624 18.2658 -24.4717
LeftForeArm  38.4026 -36.9918 -6.12816
LeftHand  -0.25398 0.0180481 5.50724
RightShoulder  5.85823 9.67127 38.4035
RightArm  3.99239 -16.0836 32.8014
RightForeArm  -4.72831 15.7435 7.31373
RightHand  -3.91428 11.5002 -26.8795
LeftUpLeg  2.07396 18.526 17.5776
LeftLeg  14.3976 32.9426 5.5731
LeftFoot  -5.41725 0.0414099 -0.282746
LeftToes  1.06247e-005 4.65855e-005 -8.18501e-006
919
root  -54.2115 40.3957 30.7339 179.012 49.7492 178.597
RightUpLeg  -11.8493 -27.148 -1.45936
RightLeg  22.2804 -5.43981 -2.68041
RightFoot  -10.2922 -0.0624393 -0.845742
RightToes  0.00048216 0.542163 -0.142577
Spine  16.3125 0.815552 2.86818
Spine1  11.0433 1.67622 -1.18375
HEad  -12.718 -8.41612 1.74509
LeftShoulder1  8.58395 -13.0697 -45.1391
LeftArm  -9.59841 17.58 -25.9707
LeftForeArm  34.8091 -34.1866 -5.6143
LeftHand  -0.25398 0.0180481 5.50724
RightShoulder  5.9895 9.67133 39.3561
RightArm  -3.28929 -15.4982 32.6631
RightForeArm  -0.0596166 12.3433 7.54333
RightHand  -3.63082 10.6114 -26.3445
LeftUpLeg  0.0569843 22.278 16.0573
LeftLeg  18.2273 17.2775 6.25797
LeftFoot  -8.70544 0.0263207 0.782405
LeftToes  1.06247e-005 4.65855e-005 -8.18501e-006
920
root  -53.3006 40.3885 30.8176 178.285 52.282 178.369
RightUpLeg  -10.2816 -25.4204 -1.07651
RightLeg  22.3339 -4.9067 -2.32718
RightFoot  -11.5598 -0.080819 -1.61123
RightToes  0.00048216 0.542163 -0.142577
Spine  16.3822 0.756302 3.73931
Spine1  10.7187 1.78752 -0.930752
HEad  -11.9663 -6.90202 1.14555
LeftShoulder1  8.48223 -12.9824 -44.8281
LeftArm  -8.42447 16.4155 -27.8521
LeftForeArm  29.0177 -29.9554 -4.91312
LeftHand  -0.25398 0.0180481 5.50724
RightShoulder  6.11614 9.75829 39.981
RightArm  -8.60808 -14.5622 32.7341
RightForeArm  1.29266 9.60672 7.10665
RightHand  -3.65087 10.5848 -26.5167
LeftUpLeg  -2.88123 20.1627 13.7523
LeftLeg  23.0741 8.51398 4.36908
LeftFoot  -9.47461 0.0876707 -1.66939
LeftToes  1.06247e-005 4.65855e-005 -8.18501e-006
921
root  -52.3675 40.4339 30.8194 177.658 55.45 177.949
RightUpLeg  -8.2838 -22.6601 -1.16825
RightLeg  21.4731 -4.90445 -1.3561
RightFoot  -12.5156 -0.100959 -1.63815
RightToes  0.00048216 0.542163 -0.142577
Spine  15.9177 0.89176 4.95344
Spine1  10.6967 2.34604 -1.54037
HEad  -10.7862 -5.20751 0.262722
LeftShoulder1  8.462 -12.9352 -44.8502
LeftArm  -6.94394 16.0328 -29.3604
LeftForeArm  24.0291 -26.4588 -4.39444
LeftHand  -0.25398 0.0180481 5.50724
RightShoulder  6.1807 9.8731 40.0633
RightArm  -10.9079 -13.1145 33.3389
RightForeArm  0.905636 7.42588 6.67717
RightHand  -3.96162 11.5156 -27.1625
LeftUpLeg  -5.79073 19.0216 10.8531
LeftLeg  26.8998 5.69267 3.50607
LeftFoot  -9.01794 0.136606 -4.10673
LeftToes  1.06247e-005 4.65855e-005 -8.18501e-006
922
root  -51.3853 40.5201 30.7586 176.97 59.2238 177.288
RightUpLeg  -5.92859 -18.6268 -1.60499
RightLeg  19.8692 -5.43808 0.0984612
RightFoot  -13.2196 -0.107185 -1.082
RightToes  0.00048216 0.542163 -0.142577
Spine  15.2648 1.18248 6.30413
Spine1  10.5227 3.24601 -3.03813
HEad  -9.29992 -3.28144 -0.736918
LeftShoulder1  8.4856 -12.9186 -45.0279
LeftArm  -5.55336 17.0551 -30.3837
LeftForeArm  22.7826 -24.7725 -4.0987
LeftHand  -0.25398 0.0180481 5.50724
RightShoulder  6.19645 9.9937 39.7823
RightArm  -11.0517 -11.5616 34.4298
RightForeArm  1.01627 6.42191 6.60243
RightHand  -4.11315 11.9923 -27.4191
LeftUpLeg  -8.44455 18.7363 7.47449
LeftLeg  29.1696 8.07108 5.18602
LeftFoot  -9.01147 0.134092 -3.91844
LeftToes  1.06247e-005 4.65855e-005 -8.18501e-006
